# Created by FreeCAD <http://www.freecad.org>
v -5.000000 5.000000 -5.000000
v -5.000000 -5.000000 -5.000000
v -5.000000 -5.000000 5.000000
v -5.000000 5.000000 5.000000
v 5.000000 5.000000 -5.000000
v 5.000000 5.000000 5.000000
v 5.000000 -5.000000 -5.000000
v 5.000000 -5.000000 5.000000
v 4.000000 4.000000 -5.000000
v 4.000000 -4.000000 -5.000000
v 4.000000 -4.000000 5.000000
v 4.000000 4.000000 5.000000
v 0.500000 4.000000 5.000000
v 0.500000 4.000000 -5.000000
v 0.500000 -4.000000 -5.000000
v 0.500000 -4.000000 5.000000
v -4.000000 -4.000000 -5.000000
v -4.000000 4.000000 -5.000000
v -4.000000 -4.000000 5.000000
v -4.000000 4.000000 5.000000
v -0.500000 4.000000 5.000000
v -0.500000 4.000000 -5.000000
v -0.500000 -4.000000 -5.000000
v -0.500000 -4.000000 5.000000
vn -1.000000 0.000000 0.000000
vn -1.000000 0.000000 0.000000
vn 0.000000 1.000000 0.000000
vn 0.000000 1.000000 -0.000000
vn 1.000000 0.000000 0.000000
vn 1.000000 0.000000 0.000000
vn 0.000000 -1.000000 0.000000
vn 0.000000 -1.000000 0.000000
vn -1.000000 0.000000 0.000000
vn -1.000000 0.000000 0.000000
vn 0.000000 -1.000000 0.000000
vn 0.000000 -1.000000 0.000000
vn 1.000000 0.000000 0.000000
vn 1.000000 0.000000 0.000000
vn 0.000000 1.000000 0.000000
vn 0.000000 1.000000 -0.000000
vn 1.000000 0.000000 0.000000
vn 1.000000 -0.000000 0.000000
vn 0.000000 -1.000000 0.000000
vn 0.000000 -1.000000 0.000000
vn -1.000000 0.000000 0.000000
vn -1.000000 -0.000000 0.000000
vn 0.000000 1.000000 0.000000
vn 0.000000 1.000000 0.000000
vn 0.000000 -0.000000 -1.000000
vn 0.000000 -0.000000 -1.000000
vn 0.000000 0.000000 -1.000000
vn 0.000000 0.000000 -1.000000
vn -0.000000 -0.000000 -1.000000
vn 0.000000 -0.000000 -1.000000
vn 0.000000 0.000000 -1.000000
vn 0.000000 0.000000 -1.000000
vn 0.000000 0.000000 -1.000000
vn 0.000000 0.000000 -1.000000
vn 0.000000 0.000000 -1.000000
vn 0.000000 0.000000 -1.000000
vn 0.000000 0.000000 -1.000000
vn 0.000000 0.000000 -1.000000
vn 0.000000 0.000000 1.000000
vn 0.000000 0.000000 1.000000
vn 0.000000 0.000000 1.000000
vn 0.000000 0.000000 1.000000
vn 0.000000 0.000000 1.000000
vn 0.000000 0.000000 1.000000
vn 0.000000 0.000000 1.000000
vn 0.000000 0.000000 1.000000
vn 0.000000 0.000000 1.000000
vn 0.000000 0.000000 1.000000
vn 0.000000 0.000000 1.000000
vn 0.000000 0.000000 1.000000
vn 0.000000 0.000000 1.000000
vn 0.000000 0.000000 1.000000
f 1//1 2//1 3//1
f 1//2 3//2 4//2
f 5//3 1//3 4//3
f 5//4 4//4 6//4
f 7//5 5//5 6//5
f 7//6 6//6 8//6
f 2//7 7//7 8//7
f 2//8 8//8 3//8
f 9//9 10//9 11//9
f 9//10 11//10 12//10
f 9//11 12//11 13//11
f 14//12 9//12 13//12
f 15//13 14//13 13//13
f 15//14 13//14 16//14
f 15//15 16//15 11//15
f 10//16 15//16 11//16
f 17//17 18//17 19//17
f 19//18 18//18 20//18
f 20//19 18//19 21//19
f 18//20 22//20 21//20
f 22//21 23//21 21//21
f 21//22 23//22 24//22
f 24//23 23//23 19//23
f 23//24 17//24 19//24
f 17//25 23//25 2//25
f 23//26 15//26 2//26
f 1//27 18//27 2//27
f 2//28 18//28 17//28
f 10//29 7//29 15//29
f 15//30 7//30 2//30
f 23//31 22//31 15//31
f 1//32 22//32 18//32
f 22//33 14//33 15//33
f 14//34 5//34 9//34
f 9//35 5//35 10//35
f 10//36 5//36 7//36
f 1//37 5//37 22//37
f 22//38 5//38 14//38
f 24//39 19//39 3//39
f 16//40 24//40 3//40
f 20//41 4//41 3//41
f 20//42 3//42 19//42
f 8//43 11//43 16//43
f 8//44 16//44 3//44
f 21//45 24//45 16//45
f 21//46 4//46 20//46
f 13//47 21//47 16//47
f 6//48 13//48 12//48
f 6//49 12//49 11//49
f 6//50 11//50 8//50
f 6//51 4//51 21//51
f 6//52 21//52 13//52
